<svg width="136" height="58" viewBox="0 0 136 58" fill="none" xmlns="http://www.w3.org/2000/svg"><path opacity=".6" d="M87.8 23.5c2-1.3 3 .3 5.7 0 2.7-.4 3.5-4.1 3.5-4.1s-1.7 1.5-3.5 1.7c-1.4.1-2.8-2.1-5.2-2.1-3 0-4 1.3-5.8 2.4l-1.1.5-.6-1.1L89 10.6l-11.5 6.2c1.2-2.3-.1-5 .2-7 .5-2.4 2.3-2.2 3.8-4.5S80.8 0 80.8 0s0 2.3-1 3.8c-1 1.2-3.5.8-5 2.5-2.1 2.4-1.8 4-2.1 6-.1.8-.4 1.4-.8 1.8l-.7-.1L68.6.5 66 13.6c-.8-2.7-3.8-3.3-5.2-5-1.5-1.8-.2-3-1-5.7C59 .3 55.4.1 55.4.1s1.7 1.4 2.2 3.2c.4 1.5-1.6 3.2-1.3 5.6.5 3 2 3.8 3.3 5.4.9 1 1 2 1 2.5-.2 0-.3.2-.5.3l-12.5-6.4 8.6 10.2c-2.6-1-5 1-7 1.1-2.5.1-2.6-1.8-5.1-2.8-2.6-1-5 1.9-5 1.9s2.2-.5 3.9.2c1.3.6 1.4 3.2 3.5 4.4 2.7 1.6 4.2.9 6.2.8 1.5-.1 2.3.5 2.7.8v.3l-13 6 13.3-.3c-2.4 1.4-2.3 4.5-3.6 6.2-1.4 2-3 1-5.3 2.3-2.4 1.4-1.7 5-1.7 5s1-2 2.6-2.9c1.3-.6 3.4.9 5.6 0 2.9-1.1 3.3-2.7 4.5-4.4.7-1.1 1.6-1.5 2.1-1.6l.3.3L56.7 52l8-10.7c-.4 2.7 2 4.6 2.6 6.7.6 2.3-1.1 2.9-1.5 5.6-.5 2.7 2.8 4.5 2.8 4.5s-1-2-.6-3.9c.3-1.4 2.7-2.1 3.4-4.4 1-3 0-4.3-.6-6.3a4 4 0 010-2L72 41l8.6 10.6L77 39c2 2 5 1 6.9 1.8 2.2.9 1.6 2.7 3.6 4.6 1.9 2 5.3.3 5.3.3s-2.3-.4-3.5-1.8c-1-1-.1-3.5-1.5-5.4-1.9-2.5-3.5-2.5-5.4-3.2a4 4 0 01-1.4-.8l.6-1.2 13.1-.5-12-4.6V28c2.4-.6 3.5-3.3 5.2-4.4zm-5-.8c1.8-1.4 3-2.4 4.5-2.6 2-.2 2.8.5 2.8.5s-3.2-.8-4.7 1.4c-.8 1-2 2-3.1 2.5l-.4-1.3.8-.5zm-3.4-4l-.7-.8 6.6-4.1-6 5zM73.8 13c.2-2.3.2-3.8 1.1-5.1C76 6.3 77.1 6 77.1 6s-2.7 2-2.1 4.6c.3 1.5.2 3.1-.4 4.5l-1.3-.6c.2-.4.4-.8.5-1.5zm-5.2.8h-1.2l1.2-8.4v8.4zm-7.9 0c-1.6-1.6-2.7-2.6-3.2-4.1-.5-2 0-3 0-3s-.2 3.4 2.1 4.6c1.6.9 3 2.3 3.5 3.8l-1.3.7c-.1-.5-.4-1.2-1-2zm-2.5 5.3l-.8 1-6.1-6.4 6.9 5.4zM53 25.2c-2.3.3-3.7.6-5.2 0-1.8-.8-2.2-1.8-2.2-1.8s2.4 2.3 4.8 1.2a7 7 0 015.3-.4l-.3 1.5c-.4-.3-1.2-.6-2.4-.5zm2.5 5.3l.3 1.2-8.8.8 8.5-2zm1.5 7.9c-1.3 2-2 3.3-3.3 4-1.7 1-2.8.7-2.8.7s3.3-.5 4-3a7.2 7.2 0 012.9-4.5l.9 1.2c-.5.2-1.1.6-1.7 1.6zm5.3 1.4l1 .5-4.6 7.2 3.6-7.7zm7.2 3.4c.7 2.2 1.4 3.6 1 5.2-.2 1.9-1.1 2.6-1.1 2.6s1.6-3 0-5c-1-1.4-1.6-3-1.6-4.5H69.2c0 .4 0 1 .3 1.7zm9 4.2l-4-7.1 1-.5 3 7.6zm2.8-11.3c2.2.8 3.7 1 4.8 2.2 1.3 1.4 1.4 2.5 1.4 2.5s-1.4-3-4-3c-1.5 0-3-.3-4.2-1.1l.8-1.1 1.2.5zm8.5-4.2l-7.5-1.2.2-1 7.3 2.2z" fill="url(#paint0_linear)"/><path d="M6.9 31v.8c0 .4 0 .8-.3 1.2-.1.4-.4.7-.7 1l-1 .7-1.4.3c-.4 0-.8 0-1.2-.2a3 3 0 01-2-1.5c-.2-.4-.3-1-.3-1.5v-7.6c0-.5 0-.9.3-1.3.1-.4.4-.7.7-1 .3-.3.6-.5 1-.6l1.5-.3c1 0 1.8.3 2.4 1 .3.2.6.6.7 1 .2.4.3.8.3 1.3v.8H4.8v-.7c0-.4-.2-.7-.4-1-.2-.3-.5-.4-1-.4s-.8.1-1 .4c-.2.3-.3.7-.3 1.2v7c0 .4.1.8.3 1 .2.3.5.4 1 .4H4l.4-.3c.2 0 .3-.2.3-.4l.2-.7V31h2.1zM24.7 30l-1-5-1.1 5h2.1zM19.5 35L22.8 21h1.8L27.9 35h-2.1l-.7-3h-2.9l-.6 3h-2.1zM46.8 25h-2.1v-.4a2 2 0 00-.4-1.1c-.2-.4-.6-.5-1.1-.5l-.8.1-.4.4-.2.6V25.4l.1.5c0 .2.2.3.4.4l.6.3 1.7.6 1.1.6.7.8c.1.3.3.6.3 1a9.4 9.4 0 01-.1 3c-.1.5-.3.9-.6 1.2a3 3 0 01-1.2.9c-.4.2-1 .3-1.7.3-.5 0-1 0-1.4-.3a3.5 3.5 0 01-2-1.7l-.2-1.3V31h2.1v.6c0 .4.1.7.3 1 .3.3.7.4 1.2.4l.8-.1c.3-.1.4-.3.5-.4l.2-.7a8 8 0 000-1.7l-.1-.6-.4-.3-.7-.3-1.5-.6c-1-.3-1.5-.8-1.9-1.4-.3-.5-.4-1.3-.4-2.1 0-.5 0-1 .2-1.5a3.3 3.3 0 011.8-2 4 4 0 011.6-.3 3.7 3.7 0 012.6 1c.7.6 1 1.3 1 2.1v1zM59.4 34.9V21h2.1V35h-2zM72 34.9V21h2l3.3 8.3v-8.3h2.1V35h-2l-3.2-8.3V35H72zM93 24.4c0-.6.1-1 .3-1.5.2-.4.5-.8.9-1l1.1-.7a4.1 4.1 0 012.6 0l1.1.6a3.3 3.3 0 011.2 2.6v7.2c0 .6-.1 1.1-.3 1.5-.2.4-.5.8-.9 1l-1.1.7a4 4 0 01-3.7-.7 3 3 0 01-1.2-2.5v-7.2zm2.2 7.2c0 .5.1.9.4 1.1.3.2.6.3 1 .3s.7 0 1-.3c.3-.2.4-.6.4-1v-7.3c0-.5-.1-.9-.4-1-.3-.3-.6-.4-1-.4s-.7 0-1 .3c-.3.2-.4.6-.4 1v7.3zM111.4 34.9V21h2V33h4.3v2h-6.3zM131 34.9V29l-3-8h2.3l1.7 5.5 1.7-5.5h2.3l-3 8v5.8h-2z" fill="#fff"/><defs><linearGradient id="paint0_linear" x1="102.3" y1="58" x2="29.7" y2="52.5" gradientUnits="userSpaceOnUse"><stop offset="0" stop-color="#A87A03"/><stop offset=".5" stop-color="#E9C016"/><stop offset="1" stop-color="#F8E18E"/></linearGradient></defs></svg>
