<svg xmlns="http://www.w3.org/2000/svg" viewBox="0 0 1151.41 288"><defs><style>.cls-1,.cls-2{fill:#d40011;}.cls-2{stroke:#e41c24;stroke-miterlimit:10;stroke-width:2px;}.cls-3{fill:#fff;fill-rule:evenodd;}</style></defs><g id="Layer_1" data-name="Layer 1"><path class="cls-1" d="M394.3,115.22l-7.21,5.54A39.52,39.52,0,0,0,372.75,109a42,42,0,0,0-18.38-4,40.57,40.57,0,0,0-20.28,5.26,37.75,37.75,0,0,0-14.46,14.12,39.05,39.05,0,0,0-5.13,19.93Q314.5,161,326,172.2t28.95,11.19q19.21,0,32.16-15l7.21,5.47a46,46,0,0,1-17.07,13.47A53.59,53.59,0,0,1,354.37,192q-24,0-37.88-16-11.62-13.49-11.63-32.59,0-20.09,14.09-33.8t35.3-13.72A51.75,51.75,0,0,1,377.38,101,44.87,44.87,0,0,1,394.3,115.22Z"/><path class="cls-1" d="M450,98.24l42.67,91.5h-9.88l-14.39-30.11H429l-14.26,30.11h-10.2l43.23-91.5Zm-1.15,19.44L433.2,150.8h31.28Z"/><path class="cls-1" d="M497.43,172.69,505.2,168q8.2,15.12,19,15.11a18.2,18.2,0,0,0,8.65-2.14,15.22,15.22,0,0,0,6.15-5.75,14.93,14.93,0,0,0,2.12-7.66,15.52,15.52,0,0,0-3.11-9q-4.29-6.11-15.68-14.68t-14.24-12.5a22.91,22.91,0,0,1-4.85-14,21.18,21.18,0,0,1,2.86-10.88,20.43,20.43,0,0,1,8.05-7.75,23.32,23.32,0,0,1,11.29-2.83,24,24,0,0,1,12.1,3.21q5.63,3.19,11.91,11.78L542,116.59q-5.16-6.84-8.8-9a15.18,15.18,0,0,0-7.93-2.17,12.55,12.55,0,0,0-9.05,3.36,11,11,0,0,0-3.52,8.27,14.06,14.06,0,0,0,1.25,5.78,21.3,21.3,0,0,0,4.54,6.1q1.8,1.74,11.82,9.14,11.88,8.77,16.29,15.61A25.13,25.13,0,0,1,551,167.41a23.32,23.32,0,0,1-7.56,17.29A25.41,25.41,0,0,1,525,192a26.9,26.9,0,0,1-15.11-4.45Q503.15,183.15,497.43,172.69Z"/><path class="cls-1" d="M569,98.24h9.15v91.5H569Z"/><path class="cls-1" d="M599.18,189.74V98.24h2l60.89,70.14V98.24h9v91.5H669l-60.4-69.28v69.28Z"/><path class="cls-2" d="M736.92,95.94q20.77,0,34.79,13.87t14,34.15A47.75,47.75,0,0,1,737.66,192q-20.35,0-34.35-13.93a45.8,45.8,0,0,1-14-33.71A48.79,48.79,0,0,1,695.68,120a47.16,47.16,0,0,1,41.24-24Zm.4,8.9a37.66,37.66,0,0,0-19.25,5.29,38.08,38.08,0,0,0-14.2,14.25,39.61,39.61,0,0,0-5.11,20,38.46,38.46,0,0,0,38.56,38.78A39.21,39.21,0,0,0,757,178a37.12,37.12,0,0,0,14.14-14.13,39.78,39.78,0,0,0,5.08-19.92,38.78,38.78,0,0,0-5.08-19.7,38,38,0,0,0-14.3-14.1A38.68,38.68,0,0,0,737.32,104.84Z"/><path d="M808.29,98.24h18q10.89,0,16.73,2.59a20.46,20.46,0,0,1,9.24,7.93,21.71,21.71,0,0,1,3.39,11.88,21.36,21.36,0,0,1-3,11.1,21.94,21.94,0,0,1-8.73,8.11,33.75,33.75,0,0,1,11,5.7,22.71,22.71,0,0,1,6,7.89,23.63,23.63,0,0,1,2.14,10.05A24.67,24.67,0,0,1,855,182.12q-8.06,7.62-21.61,7.62H808.29Zm9,9v29.3h5.23q9.54,0,14-1.78a15.14,15.14,0,0,0,7.11-5.59,14.73,14.73,0,0,0,2.61-8.49,12,12,0,0,0-4.39-9.86q-4.4-3.59-14-3.58Zm0,38.5v35.08h11.34q10,0,14.7-2a16.64,16.64,0,0,0,7.51-6.13A16,16,0,0,0,849.65,153a20.48,20.48,0,0,0-11-6.22q-4.68-1.12-16.27-1.12Z"/><path d="M924.76,95.94q20.78,0,34.79,13.87t14,34.15a47.75,47.75,0,0,1-48,48.08q-20.34,0-34.35-13.93a45.79,45.79,0,0,1-14-33.71A48.78,48.78,0,0,1,883.52,120a47.16,47.16,0,0,1,41.24-24Zm.4,8.9a37.66,37.66,0,0,0-19.25,5.29,38.08,38.08,0,0,0-14.2,14.25,39.61,39.61,0,0,0-5.11,20,38.48,38.48,0,0,0,38.56,38.78A39.19,39.19,0,0,0,944.88,178,37.12,37.12,0,0,0,959,163.85a39.78,39.78,0,0,0,5.08-19.92,38.78,38.78,0,0,0-5.08-19.7,38,38,0,0,0-14.3-14.1A38.63,38.63,0,0,0,925.16,104.84Z"/><path d="M984.68,98.24H995.2L1018.62,136l23-37.74h10.57l-29,47.77v43.73h-9V146Z"/><path d="M1057.83,172.69l7.77-4.66q8.22,15.12,19,15.11a18.2,18.2,0,0,0,8.65-2.14,15.25,15.25,0,0,0,6.16-5.75,14.92,14.92,0,0,0,2.11-7.66,15.52,15.52,0,0,0-3.11-9q-4.29-6.11-15.67-14.68t-14.25-12.5a22.91,22.91,0,0,1-4.85-14,21.28,21.28,0,0,1,2.86-10.88,20.46,20.46,0,0,1,8.06-7.75,23.27,23.27,0,0,1,11.29-2.83,24,24,0,0,1,12.09,3.21q5.64,3.19,11.92,11.78l-7.47,5.66q-5.16-6.84-8.8-9a15.16,15.16,0,0,0-7.93-2.17,12.55,12.55,0,0,0-9.05,3.36,11,11,0,0,0-3.51,8.27,14,14,0,0,0,1.24,5.78,21.3,21.3,0,0,0,4.54,6.1q1.8,1.74,11.82,9.14,11.88,8.77,16.29,15.61a25.13,25.13,0,0,1,4.42,13.75,23.32,23.32,0,0,1-7.56,17.29,25.39,25.39,0,0,1-18.38,7.34,26.93,26.93,0,0,1-15.11-4.45Q1063.55,183.15,1057.83,172.69Z"/><path class="cls-3" d="M773.93,123a39,39,0,0,0-3.67-5.3,4.92,4.92,0,0,1,.7-6.81l6.65-6.35A56.31,56.31,0,0,1,791.78,129l-8.85,2.6a4.93,4.93,0,0,1-6.24-2.81,40,40,0,0,0-2.76-5.83Zm0,42.06a39.48,39.48,0,0,0,2.76-5.83,4.93,4.93,0,0,1,6.24-2.81l8.85,2.6a56.31,56.31,0,0,1-14.17,24.5L771,177.14a4.92,4.92,0,0,1-.7-6.81,39.7,39.7,0,0,0,3.67-5.31Zm-36.42,21a39.9,39.9,0,0,0,6.43-.52,4.92,4.92,0,0,1,5.55,4l2.17,9a56.86,56.86,0,0,1-28.31,0l2.18-9a4.9,4.9,0,0,1,5.54-4,40.11,40.11,0,0,0,6.44.52Zm-36.43-21a40.65,40.65,0,0,0,3.67,5.31,4.92,4.92,0,0,1-.69,6.81l-6.66,6.34A56.19,56.19,0,0,1,683.24,159l8.84-2.6a4.93,4.93,0,0,1,6.24,2.81,39.48,39.48,0,0,0,2.76,5.83Zm0-42.06a40,40,0,0,0-2.76,5.83,4.93,4.93,0,0,1-6.24,2.81l-8.84-2.6a56.19,56.19,0,0,1,14.16-24.5l6.66,6.35a4.92,4.92,0,0,1,.69,6.81,39.92,39.92,0,0,0-3.67,5.3Zm36.43-21a40.11,40.11,0,0,0-6.44.52,4.91,4.91,0,0,1-5.54-4l-2.18-9a56.86,56.86,0,0,1,28.31,0l-2.17,9a4.92,4.92,0,0,1-5.55,4A40,40,0,0,0,737.51,101.93Z"/><path d="M107.54,85.62c11.22-12.8,23.81-23.93,40.83-29.05,24.16-7.26,49.69,5.75,59,29.18,4.47,11.19,5.87,22.62,2.42,34.34a39.78,39.78,0,0,1-10.73,17.5,12.15,12.15,0,0,1-2.06,1.34l.55,1.21c3.54-1,7.2-1.67,10.59-3a65.75,65.75,0,0,0,28.12-21.94,4.33,4.33,0,0,1,3.75-1.71c1.92.13,3.86,0,5.94,0v60.9h0c-2.63,0-5.21.13-7.76-.09-.72-.06-1.43-1.08-2-1.79-8.94-11.25-19.75-19.81-33.87-23.61-1.56-.42-3.19-.6-5.16-1a6.44,6.44,0,0,0,.69,1.16c13.06,12.23,16.31,27.33,12.27,44.18-4.9,20.49-17.16,34.32-38.15,39.07-14.1,3.19-27.06-.82-39.21-8-9.72-5.71-17.75-13.42-25.12-21.94,1.63,1.12,3.25,2.27,4.91,3.35,12.67,8.27,26.34,13.7,41.7,12.8,20.06-1.16,35.69-10.14,44.84-28.39,8.84-17.63,2.93-35.11-14.33-44.67h0a1.81,1.81,0,0,1,0-3.16l.66-.39c18-10.66,23-29.83,11.85-47.7-11.6-18.56-29-26.32-50.51-24.82-13.94,1-26.14,6.81-37.39,14.81Z"/><path class="cls-1" d="M158.14,212.41a38.49,38.49,0,0,1-15.42.75c-14.54-2.09-26.37-9.47-36.82-19.37-6.4-6.07-12.68-12.29-19.05-18.39-13.5-12.92-28.08-24.22-46.22-30.69a.89.89,0,0,1-.07-1.65h0c16.21-6.14,30-16,42.62-27.65,8.64-8,17-16.24,25.81-24.1,9.64-8.65,20.62-14.87,33.69-16.63a39.85,39.85,0,0,1,12.6.14.88.88,0,0,1,.14,1.7c-12.29,4.2-21.88,11.66-30.76,20.25-5.72,5.54-11.51,11-17.32,16.45C95,124.83,81.59,135,65.74,141.52c-1.67.69-3.33,1.41-5,2.12-.06,0-.07.15-.14.31.13.14.26.4.45.47,17.18,5.76,31.53,16,44.59,28.24,7.39,6.93,14.6,14,21.92,21,8.54,8.17,18.12,14.7,29.56,18.18A11,11,0,0,1,158.14,212.41Z"/></g></svg>