<?xml version="1.0" encoding="utf-8"?>
<svg xmlns="http://www.w3.org/2000/svg" fill="none" height="41" viewBox="0 0 219 41" width="219">
<path d="M115.417 30.3465C115.637 30.3465 115.864 30.34 116.087 30.3335C116.304 30.3273 116.517 30.3211 116.718 30.3211L116.886 30.2998C117.237 30.2555 117.583 30.2117 117.891 30.1679L118.044 30.1425V17.9574C118.044 16.7593 117.712 15.8161 117.075 15.1023C116.412 14.3885 115.545 14.0321 114.423 14.0321H113.734C113.374 14.0321 112.969 14.0546 112.54 14.0784L112.459 14.0829C112.257 14.0941 112.045 14.1102 111.826 14.1269C111.547 14.1481 111.255 14.1703 110.954 14.1845H110.827L110.802 14.3124C110.649 14.8221 110.598 15.4089 110.598 16.1227C110.598 16.8364 110.674 17.4223 110.802 17.8305L110.827 17.9574H111.44C112.612 17.9574 112.739 18.8753 112.739 19.5891V30.1171L112.893 30.1425C113.288 30.223 113.689 30.2739 114.092 30.2948C114.525 30.3465 114.959 30.3465 115.417 30.3465Z" fill="#222222"/>
<path d="M112.28 11.8146C112.816 12.1202 113.606 12.2989 114.627 12.2989C115.647 12.2989 116.462 12.1456 117.1 11.84L117.152 11.8146L117.177 11.7629C117.432 11.177 117.559 10.5394 117.559 9.87732C117.563 9.2289 117.433 8.58665 117.177 7.99083L117.152 7.94004L117.1 7.91374C116.514 7.55731 115.723 7.37863 114.703 7.37863C113.734 7.37863 112.918 7.53191 112.28 7.88835L112.23 7.91374L112.204 7.96544C111.949 8.55134 111.822 9.18893 111.822 9.85101C111.818 10.4995 111.948 11.1417 112.204 11.7375L112.23 11.7892L112.28 11.8146Z" fill="#222222"/>
<path d="M103.381 30.6268C101.214 30.6268 99.1993 30.1171 97.3636 29.0714L97.2612 29.0206V28.919C97.2866 28.3576 97.4398 27.7209 97.6947 27.0579C97.9495 26.3949 98.2815 25.8598 98.6642 25.4517L98.7658 25.3501L98.8928 25.4009C100.525 26.2679 101.979 26.7006 103.177 26.7006C103.712 26.7006 104.146 26.6244 104.427 26.4457C104.682 26.2679 104.809 26.0639 104.809 25.809C104.809 25.2739 104.375 24.8658 103.483 24.5855L101.75 23.9225C99.0714 22.9539 97.7201 21.2969 97.7201 19.054C97.7201 17.4223 98.3069 16.0964 99.4288 15.1277C100.551 14.1591 102.081 13.7002 103.994 13.7002C104.937 13.7002 105.957 13.828 107.079 14.1083C108.201 14.3632 109.119 14.6951 109.858 15.0515L109.96 15.1023V15.2048C110.011 15.8161 109.884 16.4791 109.603 17.2183C109.323 17.9321 108.965 18.4672 108.532 18.7991L108.456 18.8499L108.354 18.7991C106.645 18.0336 105.192 17.6264 104.044 17.6264C103.662 17.6264 103.381 17.7026 103.203 17.8559C103.024 18.0082 102.948 18.1869 102.948 18.4418C102.948 18.8499 103.305 19.2063 104.019 19.4612L105.957 20.1496C108.813 21.1436 110.241 22.9031 110.241 25.3755C110.241 27.0071 109.628 28.2814 108.456 29.25C107.231 30.1425 105.549 30.6268 103.381 30.6268Z" fill="#222222"/>
<path d="M72.2199 30.6268C70.5874 30.6268 69.1852 30.3211 68.0633 29.6835C66.963 29.0659 66.0206 28.202 65.3098 27.1595C64.6205 26.1146 64.1108 24.9165 63.8042 23.5652C63.4953 22.1848 63.3417 20.7741 63.3462 19.3596C63.3462 17.4731 63.5757 15.7907 64.06 14.3631C64.5443 12.9356 65.1819 11.7375 65.9982 10.7689C66.7829 9.82772 67.7789 9.08531 68.905 8.60212C70.0024 8.11781 71.1996 7.88834 72.4494 7.88834C73.7246 7.88834 74.8719 8.06701 75.9176 8.39805C76.9634 8.73 77.8558 9.21432 78.595 9.82561C79.3351 10.4124 79.8956 11.1516 80.3037 11.967C80.7118 12.7832 80.8905 13.6748 80.8905 14.618C80.8905 16.5807 79.8702 17.601 77.8558 17.601C77.269 17.601 76.6314 17.4985 75.8922 17.3198L75.7653 17.2944V16.7847C75.7653 13.7772 74.6932 12.3243 72.5002 12.3243C71.2513 12.3243 70.3589 12.8848 69.8228 14.0067C69.2623 15.1794 68.9558 16.938 68.9558 19.2317C68.9558 21.5009 69.3131 23.2087 70.0269 24.3044C70.7416 25.4009 71.7102 25.9106 73.087 25.9106C73.8008 25.9106 74.5916 25.7319 75.4587 25.4009C76.3258 25.0698 77.2944 24.5084 78.3147 23.7692L78.4163 23.6931L78.5188 23.7692C79.0539 24.1266 79.5645 24.6363 80.0234 25.2739C80.4824 25.9106 80.7626 26.5228 80.8905 27.1087V27.2112L80.8134 27.2873C80.2867 27.7813 79.7149 28.2249 79.1056 28.6124C78.468 29.0206 77.7542 29.3779 76.9887 29.6835C76.2487 29.9638 75.4587 30.2186 74.6424 30.3973C73.8779 30.5243 73.0362 30.6268 72.2209 30.6268H72.2199Z" fill="#222222"/>
<path clip-rule="evenodd" d="M84.7913 30.2186C85.4035 30.4989 86.1436 30.6268 86.9844 30.6268C88.5661 30.6268 90.0445 30.0146 91.4212 28.7657C92.2121 29.7851 93.3848 30.3211 94.8133 30.3465H94.8641L94.9148 30.3211C95.2468 30.0917 95.5787 29.6835 95.8844 29.1738C96.19 28.6641 96.3941 28.1798 96.4966 27.7209L96.522 27.593L96.4195 27.5168C95.8835 27.1595 95.6295 26.5482 95.6295 25.6303V19.258C95.6295 18.2885 95.4509 17.4731 95.1452 16.7593C94.8614 16.0899 94.4246 15.4963 93.87 15.0261C93.334 14.5672 92.7227 14.2616 92.008 14.0321C91.3079 13.8062 90.5761 13.6941 89.8404 13.7001C89.2696 13.7 88.6993 13.7343 88.1326 13.8026C87.4916 13.8817 86.8536 13.9836 86.2198 14.1083C86.0444 14.1488 85.8708 14.1875 85.6989 14.2259C85.2213 14.3324 84.7572 14.4358 84.307 14.5672C83.6948 14.7205 83.1089 14.8982 82.6237 15.1023L82.4967 15.1531V15.3064C82.65 16.8872 83.0581 18.0599 83.7202 18.8245L83.7973 18.9261L83.8989 18.9007C86.0665 18.2377 87.5966 17.8812 88.4636 17.8812C89.7388 17.8812 90.3256 18.4671 90.3256 19.6906V20.0988C90.2162 20.0988 90.1014 20.093 89.9809 20.087C89.8478 20.0804 89.7077 20.0734 89.5601 20.0734H88.285C87.4479 20.072 86.6151 20.1921 85.8126 20.4298C85.0709 20.6426 84.3778 20.9978 83.7719 21.4755C83.1787 21.9429 82.7065 22.5461 82.3951 23.2341C82.0632 23.9479 81.8845 24.7633 81.8845 25.6811C81.8783 26.3167 81.9905 26.9478 82.2156 27.5422C82.4237 28.1318 82.7544 28.6706 83.186 29.123C83.6351 29.6006 84.1829 29.9745 84.7913 30.2186ZM87.0107 25.3755C87.0107 24.1266 87.5712 23.5398 88.7956 23.5398C88.948 23.5398 89.152 23.5398 89.4323 23.5915C89.5369 23.5915 89.6572 23.5967 89.7883 23.6024C89.9458 23.6093 90.1191 23.6169 90.3002 23.6169V25.8598C89.6372 26.3949 89.025 26.6751 88.5144 26.6751C87.495 26.6751 87.0107 26.2679 87.0107 25.3755Z" fill="#222222" fill-rule="evenodd"/>
<path d="M132.579 30.3973C131.432 30.3973 130.641 30.1171 130.207 29.582C129.774 29.0459 129.57 28.2306 129.57 27.1858V20.5069C129.57 19.8185 129.494 19.3342 129.315 19.0285C129.162 18.7474 128.856 18.6204 128.372 18.6204C128.091 18.6204 127.76 18.6966 127.377 18.8499C127.019 19.0032 126.663 19.258 126.255 19.5637V30.0917L126.102 30.1171C125.711 30.1712 125.32 30.222 124.929 30.2694C124.087 30.3211 123.169 30.3211 122.328 30.2694C121.934 30.2487 121.541 30.1977 121.155 30.1171L121.002 30.0917V14.2108L121.334 13.8788H123.246C124.521 13.8788 125.413 14.4656 125.898 15.6383C127.326 14.4402 128.779 13.828 130.182 13.828C131.687 13.828 132.859 14.3631 133.676 15.4343C134.466 16.4791 134.874 17.8812 134.874 19.5891V26.0131C134.874 27.3381 135.103 28.3576 135.588 29.0205L135.69 29.1484L135.562 29.25C134.721 30.0146 133.726 30.3973 132.579 30.3973Z" fill="#222222"/>
<path clip-rule="evenodd" d="M141.07 30.0146C141.989 30.4227 143.034 30.6268 144.233 30.6268C145.431 30.6268 146.502 30.4227 147.42 30.04C148.325 29.6622 149.128 29.0773 149.766 28.3322C150.404 27.593 150.888 26.7005 151.22 25.6557C151.526 24.6109 151.704 23.4636 151.704 22.1893C151.704 19.3596 150.913 17.1421 149.383 15.612C148.083 14.3378 146.349 13.7002 144.233 13.7002C143.06 13.7002 141.989 13.9042 141.07 14.3124C140.173 14.7028 139.379 15.2961 138.75 16.0456C138.113 16.7847 137.628 17.7026 137.322 18.722C136.991 19.7423 136.837 20.8887 136.837 22.1639C136.834 23.3282 136.997 24.4869 137.322 25.6049C137.628 26.6498 138.113 27.5422 138.75 28.2814C139.377 29.033 140.172 29.6267 141.07 30.0146ZM143.263 17.9828C143.493 17.8042 143.825 17.7026 144.258 17.7026C145.049 17.7026 145.584 18.0336 145.864 18.7474C146.146 19.4866 146.298 20.6339 146.298 22.1122C146.298 23.5652 146.146 24.7125 145.864 25.4771C145.609 26.2162 145.049 26.5736 144.207 26.5736C143.774 26.5736 143.442 26.472 143.187 26.2933C142.932 26.1147 142.728 25.809 142.575 25.4263C142.422 25.0181 142.32 24.483 142.269 23.8717C142.218 23.2341 142.193 22.4696 142.193 21.6025C142.199 21.0829 142.233 20.564 142.295 20.048C142.371 19.5637 142.473 19.1555 142.626 18.7991C142.773 18.4816 142.991 18.2022 143.263 17.9828Z" fill="#222222" fill-rule="evenodd"/>
<path clip-rule="evenodd" d="M163.741 30.3465C163.103 30.3465 162.184 30.3465 160.935 30.3211C160.661 30.3154 160.37 30.3097 160.063 30.3037C159.001 30.2827 157.75 30.2581 156.345 30.2187H156.269L155.937 29.8876V8.65383L156.269 8.32187H156.345C156.907 8.30998 157.485 8.2925 158.075 8.27468C158.744 8.25446 159.428 8.23379 160.119 8.22029C161.445 8.1949 162.822 8.1949 164.25 8.1949C166.035 8.1949 167.565 8.47515 168.79 9.06105C169.988 9.62246 170.982 10.4378 171.696 11.4318C172.41 12.4259 172.92 13.624 173.226 14.9753C173.507 16.3004 173.685 17.7534 173.685 19.2834C173.685 21.3731 173.456 23.2341 172.972 24.7642C172.486 26.3187 171.518 27.6438 170.116 28.7403C169.426 29.3008 168.508 29.7089 167.412 29.9638C166.29 30.2187 165.067 30.3465 163.741 30.3465ZM161.292 12.4513V26.0893C161.447 26.0893 161.613 26.0837 161.79 26.0778C161.992 26.0711 162.209 26.0639 162.44 26.0639H164.199C166.851 26.0639 168.152 23.8463 168.152 19.2834C168.152 14.6951 166.851 12.4767 164.199 12.4767H162.44C162.006 12.4767 161.624 12.4767 161.292 12.4513Z" fill="#222222" fill-rule="evenodd"/>
<path clip-rule="evenodd" d="M177.944 30.2186C178.556 30.4989 179.295 30.6268 180.137 30.6268C181.717 30.6268 183.171 30.0146 184.573 28.7657C185.364 29.7851 186.537 30.3211 187.966 30.3465H188.016L188.067 30.3211C188.399 30.0917 188.73 29.6835 189.037 29.1738C189.342 28.6641 189.546 28.1798 189.649 27.7209L189.674 27.593L189.572 27.5168C189.037 27.1595 188.782 26.5482 188.782 25.6303V19.258C188.782 18.2885 188.603 17.4731 188.297 16.7593C188.013 16.09 187.577 15.4964 187.022 15.0261C186.486 14.5672 185.874 14.2616 185.16 14.0321C184.46 13.8062 183.728 13.6941 182.993 13.7001C182.422 13.7 181.851 13.7343 181.284 13.8026C180.673 13.8788 180.01 13.9813 179.372 14.1083C179.197 14.1488 179.023 14.1874 178.852 14.2257L178.851 14.2258L178.851 14.2259C178.373 14.3324 177.909 14.4358 177.459 14.5672C176.847 14.7205 176.261 14.8982 175.776 15.1023L175.649 15.1531V15.3064C175.801 16.8872 176.209 18.0853 176.872 18.8245L176.95 18.9261L177.051 18.9007C179.219 18.2377 180.749 17.8812 181.616 17.8812C182.891 17.8812 183.477 18.4671 183.477 19.6906V20.0988C183.368 20.0988 183.253 20.093 183.133 20.087C183 20.0804 182.86 20.0734 182.712 20.0734H181.437C180.6 20.0719 179.767 20.1919 178.964 20.4298C178.223 20.6425 177.53 20.9977 176.924 21.4755C176.331 21.9429 175.858 22.5461 175.546 23.2341C175.215 23.9479 175.037 24.7633 175.037 25.6811C175.03 26.3167 175.143 26.948 175.369 27.5422C175.576 28.1318 175.906 28.6707 176.337 29.123C176.787 29.6008 177.335 29.9747 177.944 30.2186ZM180.162 25.3755C180.162 24.1266 180.723 23.5398 181.947 23.5398C182.1 23.5398 182.304 23.5398 182.585 23.5915C182.689 23.5915 182.809 23.5967 182.94 23.6024C183.098 23.6093 183.271 23.6169 183.452 23.6169V25.8598C182.789 26.3949 182.176 26.6751 181.667 26.6751C180.647 26.6751 180.162 26.2679 180.162 25.3755Z" fill="#222222" fill-rule="evenodd"/>
<path d="M193.83 36.9991C192.556 36.9991 191.255 36.7696 189.98 36.3624L189.877 36.337V36.2091C189.827 35.6232 189.877 34.9602 190.081 34.2465C190.286 33.5327 190.567 32.9468 190.898 32.564L190.974 32.4879L191.076 32.5133C191.964 32.812 192.893 32.9669 193.83 32.9722C195.284 32.9722 196.252 32.1813 196.712 30.576L196.763 30.3719C195.004 30.3211 193.932 29.6073 193.575 28.256L189.904 14.5926L190.056 14.5418C191.026 14.0829 191.969 13.8534 192.836 13.8534C193.703 13.8534 194.366 14.0321 194.774 14.3631C195.182 14.6951 195.488 15.281 195.692 16.0963L197.119 22.1122C197.273 22.6736 197.502 24.0241 197.834 26.1146L200.512 14.2108L200.613 14.1845C201.124 14.0321 201.838 13.9559 202.705 13.9559C203.673 13.9559 204.54 14.0829 205.28 14.3123L205.357 14.3377L205.611 14.8221L205.586 14.8982L201.735 29.6327C201.124 31.9011 200.282 33.686 199.287 34.9094C198.089 36.2853 196.279 36.9991 193.83 36.9991Z" fill="#222222"/>
<path d="M205.714 29.0714C207.55 30.1171 209.564 30.6268 211.732 30.6268C213.899 30.6268 215.608 30.1425 216.806 29.25C217.979 28.2814 218.591 27.0071 218.591 25.3755C218.591 22.9031 217.163 21.1436 214.307 20.1496L212.369 19.4612C211.655 19.2063 211.298 18.8499 211.298 18.4418C211.298 18.1869 211.374 18.0082 211.553 17.8559C211.732 17.7026 212.012 17.6264 212.395 17.6264C213.542 17.6264 214.996 18.0336 216.704 18.7991L216.806 18.8499L216.882 18.7991C217.316 18.4672 217.673 17.9321 217.953 17.2183C218.234 16.4791 218.361 15.8161 218.311 15.2048V15.1023L218.209 15.0515C217.469 14.6951 216.551 14.3632 215.429 14.1083C214.307 13.828 213.287 13.7002 212.344 13.7002C210.431 13.7002 208.901 14.1591 207.779 15.1277C206.657 16.0964 206.07 17.4223 206.07 19.054C206.07 21.2969 207.422 22.9539 210.1 23.9225L211.834 24.5855C212.726 24.8658 213.16 25.2739 213.16 25.809C213.16 26.0639 213.032 26.2679 212.777 26.4457C212.497 26.6244 212.063 26.7006 211.527 26.7006C210.329 26.7006 208.876 26.2679 207.244 25.4009L207.116 25.3501L207.014 25.4517C206.632 25.8598 206.3 26.3949 206.045 27.0579C205.79 27.7209 205.637 28.3576 205.611 28.919V29.0206L205.714 29.0714Z" fill="#222222"/>
<path clip-rule="evenodd" d="M19.8483 1.35492C19.7048 0.956945 19.4339 0.59015 18.6685 0.558403C8.61088 1.35492 0.688812 9.76794 0.688812 20.0297C0.688812 30.8164 9.43972 39.5644 20.2309 39.5644H28.886C29.5074 39.4369 29.9059 39.0701 29.7466 38.1936L29.6032 37.6681C29.6032 37.6522 29.5873 37.6205 29.5873 37.6046C29.555 37.4771 29.5232 37.3495 29.4915 37.2378L26.941 27.7573C26.734 27.3434 26.272 27.136 26.0328 27.136C25.9052 27.136 25.7776 27.136 25.666 27.1201H20.2309C16.3255 27.1201 13.1536 23.9493 13.1536 20.045C13.1536 16.1418 16.3255 12.971 20.2309 12.971H21.426C22.1596 12.8916 22.845 12.4449 22.2231 10.1506C22.1953 10.0273 22.1634 9.90495 22.1273 9.78382L19.8483 1.35492V1.35492Z" fill="#544BC9" fill-rule="evenodd"/>
<path clip-rule="evenodd" d="M13.1377 20.6028V20.2525C13.2494 24.0604 16.3731 27.1201 20.2145 27.1201H24.4068C25.0605 27.136 25.6501 27.136 25.8735 27.136C26.463 27.136 26.7658 27.4387 26.9251 27.789L29.4756 37.3336C29.4915 37.4289 29.5232 37.5247 29.5391 37.6205C29.555 37.6522 29.555 37.684 29.5714 37.7157L29.6667 38.0666C29.89 39.0542 29.5232 39.4528 28.9178 39.5962H27.1802C19.0671 37.0944 13.1377 29.5419 13.1377 20.6028V20.6028Z" fill="url(#paint0_radial_3_325)" fill-opacity="0.7" fill-rule="evenodd"/>
<path d="M13.1377 20.2525L13.7114 20.2366H12.5799L13.1377 20.2525ZM26.7499 27.1042L27.2919 26.9608L27.1802 26.5464H26.7499V27.1042ZM30.097 39.5644V40.1376H30.8306L30.6389 39.421L30.097 39.5644V39.5644ZM27.1961 39.5644L27.0368 40.1058L27.1167 40.1376H27.1961V39.565V39.5644ZM12.5799 20.2366V20.6034H13.7114V20.2525L12.5799 20.2366ZM20.2145 26.5464C16.6764 26.5464 13.8072 23.7418 13.7114 20.2366L12.5799 20.2683C12.7074 24.3796 16.0704 27.6779 20.2145 27.6779V26.5464ZM26.7499 26.5464H20.2145V27.6774H26.7499V26.5464ZM30.6389 39.421L27.3078 26.9602L26.2079 27.2476L29.5391 39.7079L30.6389 39.421ZM27.1961 40.1376H30.097V39.0066H27.1961V40.1376ZM12.5799 20.6034C12.5799 29.7971 18.6685 37.5723 27.0368 40.1058L27.3718 39.0225C19.4656 36.6324 13.7114 29.2868 13.7114 20.6034H12.5799Z" fill="url(#paint1_radial_3_325)"/>
<path clip-rule="evenodd" d="M32.9985 38.7679C33.1419 39.1659 33.4129 39.5327 34.1777 39.5644C44.2353 38.7679 52.1574 30.3549 52.1574 20.0932C52.1574 9.30647 43.4065 0.558403 32.6158 0.558403H23.9607C23.3388 0.685959 22.9403 1.05275 23.1001 1.92864L23.2436 2.45473C23.2436 2.47061 23.2594 2.50236 23.2594 2.51823C23.2912 2.64579 23.3229 2.77334 23.3547 2.88502L25.9052 12.3655C26.1122 12.7794 26.5748 12.9869 26.814 12.9869C26.9416 12.9869 27.0685 12.9869 27.1802 13.0028H32.6158C36.5207 13.0028 39.6926 16.1735 39.6926 20.0779C39.6926 23.9811 36.5207 27.1518 32.6158 27.1518H31.4202C30.6872 27.2312 30.0018 27.6779 30.6231 29.9722C30.6554 30.1157 30.6872 30.2273 30.7189 30.339L32.9985 38.7679V38.7679Z" fill="#A44BC9" fill-rule="evenodd"/>
<path clip-rule="evenodd" d="M39.7249 19.5359V19.8862C39.6132 16.0777 36.489 13.0186 32.6475 13.0186H28.4558C27.8021 13.0028 27.2125 13.0028 26.9892 13.0028C26.3996 13.0028 26.0963 12.7 25.937 12.3497L23.387 2.80509C23.3711 2.70928 23.3388 2.61404 23.3229 2.51823C23.307 2.48649 23.307 2.45474 23.2912 2.42299L23.1954 2.07207C22.9726 1.0845 23.3388 0.685963 23.9448 0.542534H25.6819C33.795 3.02789 39.7249 10.5968 39.7249 19.5353V19.5359Z" fill="url(#paint2_radial_3_325)" fill-opacity="0.7" fill-rule="evenodd"/>
<path d="M39.7249 19.8863L39.1506 19.9021H40.2827L39.7249 19.8863ZM26.0963 13.0186L25.5543 13.1621L25.666 13.5759H26.0963V13.0186ZM22.7651 0.574852V0H22.032L22.2231 0.717149L22.7651 0.573719V0.574852ZM25.666 0.574852L25.8253 0.0328814L25.7459 0.000567685H25.666V0.574285V0.574852ZM40.2827 19.9021V19.5353H39.1506V19.8863L40.2827 19.9021ZM32.6475 13.5924C36.1862 13.5924 39.0554 16.3969 39.1506 19.9021L40.2827 19.8704C40.1552 15.7591 36.7917 12.4608 32.6475 12.4608V13.5924V13.5924ZM26.0963 13.5924H32.6317V12.4608H26.0963V13.5924V13.5924ZM22.2231 0.717715L25.5543 13.1785L26.6541 12.8911L23.307 0.414982L22.2231 0.717715V0.717715ZM25.666 0.000567685H22.7651V1.13213H25.666V0.000567685ZM40.2827 19.5353C40.2827 10.3417 34.1935 2.56586 25.8253 0.0328814L25.4908 1.11569C33.3964 3.50637 39.1506 10.8519 39.1506 19.5353H40.2827Z" fill="url(#paint3_radial_3_325)"/>
<defs>
<radialGradient cx="0" cy="0" gradientTransform="translate(10.8736 18.6223) rotate(70.584) scale(44.7147 39.2451)" gradientUnits="userSpaceOnUse" id="paint0_radial_3_325" r="1">
<stop stop-color="#C2BDFF"/>
<stop offset="1" stop-color="#544BC9" stop-opacity="0"/>
</radialGradient>
<radialGradient cx="0" cy="0" gradientTransform="translate(16.3969 39.565) rotate(-75.287) scale(11.705 10.2736)" gradientUnits="userSpaceOnUse" id="paint1_radial_3_325" r="1">
<stop stop-color="#E5E3FF"/>
<stop offset="1" stop-color="#544BC9" stop-opacity="0"/>
</radialGradient>
<radialGradient cx="0" cy="0" gradientTransform="translate(41.986 21.5126) rotate(-109.416) scale(44.7147 39.245)" gradientUnits="userSpaceOnUse" id="paint2_radial_3_325" r="1">
<stop stop-color="#EBBCFF"/>
<stop offset="1" stop-color="#A44BC9" stop-opacity="0"/>
</radialGradient>
<radialGradient cx="0" cy="0" gradientTransform="translate(36.467 0.568748) rotate(104.713) scale(11.7051 10.2736)" gradientUnits="userSpaceOnUse" id="paint3_radial_3_325" r="1">
<stop stop-color="#F6E1FF"/>
<stop offset="1" stop-color="#A44BC9" stop-opacity="0"/>
</radialGradient>
</defs>
</svg>