<?xml version="1.0" encoding="utf-8"?>
<!-- Generator: Adobe Illustrator 26.0.1, SVG Export Plug-In . SVG Version: 6.00 Build 0)  -->
<svg version="1.1" id="Layer_1" xmlns="http://www.w3.org/2000/svg" xmlns:xlink="http://www.w3.org/1999/xlink" x="0px" y="0px"
	 viewBox="0 0 676.2 676.2" style="enable-background:new 0 0 676.2 676.2;" xml:space="preserve">
<style type="text/css">
	.st0{fill:#D40011;}
</style>
<g>
	<path d="M440.6,176.4c46.4,16.4,89.8,38.3,121.7,78.5c45.4,57,37.8,139.5-15.1,189.6c-25.2,24-54.4,40-89.6,43.3
		c-20,1.9-40.2-1.6-58.5-10c-2.1-1.1-4-2.5-5.8-4.1l-2.7,2.8c6.5,8.4,12.2,17.5,19.4,25.2c24.3,25.2,55.1,43.1,89,52
		c4.1,1.1,7.3,4.2,8.6,8.2c1.7,5.3,4.2,10.4,6.4,16L350.5,643l0,0c-2.8-7.1-6-13.9-8-20.9c-0.6-2,1.4-5,2.7-7.3
		c20.6-36,32.1-74.3,27.1-116.2c-0.6-4.6-1.8-9.2-2.8-14.9c-0.9,0.9-1.7,2-2.4,3.1c-18.8,48.1-55.9,73-105.5,80.3
		c-60.2,8.7-110.5-9.3-145.7-60.6C92.1,472,89,433,95.3,392.7c4.9-32.2,17-62,32-90.9c-1.2,5.6-2.6,11.2-3.7,16.8
		c-8.6,42.9-8.6,85.4,10.3,125.6c24.7,52.6,65.5,85,124.3,90c56.9,4.9,97.4-29.7,104.6-86.3l0,0c0.4-2.8,3-4.9,5.9-4.5
		c0.9,0.2,1.8,0.6,2.6,1.1l1.7,1.4c47.9,36.9,104.7,29.8,140.8-19.2c37.4-51,39.6-106,12.5-162.2c-17.6-36.4-46.3-62.9-79.8-84.5
		L440.6,176.4z"/>
	<path class="st0" d="M154.5,448.1c-8.8-12.2-15.2-25.9-18.6-40.6c-10-41.2-2.8-80.9,12.6-119.6c9.4-23.7,19.4-47.1,29-70.9
		c20.2-50,34.9-101.4,32.9-157c0-1.4,1-2.6,2.5-2.7c0.7-0.1,1.4,0.2,1.9,0.7l0,0c33.8,37,75,63.4,119.9,84.8
		c30.7,14.7,61.8,28.2,92.4,43.5c33.6,16.6,62,39.4,80.8,72.6c6.2,10.6,10.6,22,13.1,34c0.3,1.4-0.5,2.7-1.9,3
		c-0.9,0.1-1.9-0.1-2.5-0.8c-24.4-28.5-54.7-46.2-87.3-60.9c-21-9.4-41.9-19.1-62.7-28.9c-44.4-20.7-86.1-45.8-120.5-81.3
		c-3.6-3.7-7.4-7.4-11-11.2c-0.1-0.2-0.4,0-1,0c-0.2,0.5-0.8,1.2-0.8,1.7c3,52.3-9.2,101.7-28,150c-10.6,27.3-22,54.2-32.9,81.4
		c-12.8,31.7-20.1,64.4-17.1,98.8C154.8,445.8,154.7,446.9,154.5,448.1z"/>
</g>
</svg>
