<?xml version="1.0" encoding="utf-8"?>
<!-- Generator: Adobe Illustrator 26.0.1, SVG Export Plug-In . SVG Version: 6.00 Build 0)  -->
<svg version="1.1" id="Layer_1" xmlns="http://www.w3.org/2000/svg" xmlns:xlink="http://www.w3.org/1999/xlink" x="0px" y="0px"
	 viewBox="0 0 676.2 676.2" style="enable-background:new 0 0 676.2 676.2;" xml:space="preserve">
<style type="text/css">
	.st0{fill:#FFFFFF;}
	.st1{fill:#D40011;}
</style>
<rect x="0" y="0" class="st0" width="676.2" height="676.2"/>
<g>
	<path d="M235.6,169.4c32.4-37,68.8-69.2,118-84c69.8-21,143.6,16.6,170.5,84.3c12.9,32.3,17,65.4,7,99.3
		c-5.7,19.3-16.4,36.7-31,50.6c-1.8,1.5-3.8,2.8-6,3.9l1.6,3.5c10.2-2.9,20.8-4.8,30.6-8.7c32.4-13.2,60.5-35.2,81.3-63.4
		c2.5-3.4,6.6-5.2,10.8-4.9c5.5,0.4,11.2,0,17.2,0v176l0,0c-7.6,0-15.1,0.4-22.4-0.3c-2.1-0.2-4.1-3.1-5.8-5.2
		c-25.8-32.5-57.1-57.3-97.9-68.2c-4.5-1.2-9.2-1.7-14.9-2.9c0.5,1.2,1.2,2.3,2,3.4c37.7,35.3,47.1,79,35.5,127.7
		c-14.2,59.2-49.6,99.2-110.3,112.9c-40.8,9.2-78.2-2.4-113.3-23.1c-28.1-16.5-51.3-38.8-72.6-63.4c4.7,3.2,9.4,6.6,14.2,9.7
		c36.6,23.9,76.1,39.6,120.5,37c58-3.4,103.2-29.3,129.6-82.1c25.6-51,8.5-101.5-41.4-129.1l0,0c-2.5-1.4-3.4-4.6-2-7.1
		c0.5-0.8,1.2-1.5,2-2l1.9-1.1c52-30.8,66.5-86.2,34.3-137.9c-33.5-53.6-83.8-76.1-146-71.7c-40.3,2.9-75.6,19.7-108.1,42.8
		L235.6,169.4z"/>
	<path class="st1" d="M381.9,535.8c-14.6,3.7-29.7,4.5-44.6,2.2c-42-6-76.2-27.4-106.4-56c-18.5-17.5-36.6-35.5-55.1-53.2
		c-39-37.3-81.2-70-133.6-88.7c-1.3-0.5-2-1.9-1.6-3.3c0.2-0.7,0.7-1.2,1.4-1.5l0,0c46.9-17.7,86.7-46.2,123.2-79.9
		c25-23.1,49.1-46.9,74.6-69.7c27.9-25,59.6-43,97.4-48.1c12.1-1.8,24.4-1.7,36.4,0.4c1.4,0.2,2.3,1.5,2.1,2.9
		c-0.2,0.9-0.8,1.7-1.7,2c-35.5,12.1-63.2,33.7-88.9,58.5c-16.5,16-33.3,31.8-50.1,47.5c-35.7,33.6-74.4,63-120.2,81.8
		c-4.8,2-9.6,4.1-14.5,6.1c-0.2,0-0.2,0.4-0.4,0.9c0.4,0.4,0.8,1.2,1.3,1.4c49.7,16.6,91.1,46.2,128.9,81.6
		c21.4,20,42.2,40.5,63.4,60.7c24.7,23.6,52.4,42.5,85.4,52.5C379.9,534.7,380.9,535.2,381.9,535.8z"/>
</g>
</svg>
