<svg xmlns="http://www.w3.org/2000/svg" viewBox="0 0 1372.95 288"><defs><style>.cls-1{font-size:120px;font-family:FONTSPRINGDEMO-GreycliffCFRegular, FONTSPRING DEMO - Greycliff CF;}.cls-1,.cls-6,.cls-7{fill:#b5b5ff;}.cls-2{letter-spacing:-0.05em;}.cls-3{letter-spacing:0em;}.cls-4{letter-spacing:0em;}.cls-5{letter-spacing:0em;}.cls-7,.cls-8{fill-rule:evenodd;}.cls-8{fill:#fff;}</style></defs><g id="Layer_1" data-name="Layer 1"><text class="cls-1" transform="translate(311.95 182.7)"><tspan class="cls-2">G</tspan><tspan class="cls-3" x="90.36" y="0">A</tspan><tspan x="171.48" y="0">MBLEL</tspan><tspan class="cls-4" x="526.08" y="0">A</tspan><tspan class="cls-5" x="607.2" y="0">ND</tspan></text><path class="cls-6" d="M1091.15,181.36a3.62,3.62,0,0,1-2.68-1.12,3.86,3.86,0,0,1,0-5.42,3.57,3.57,0,0,1,2.68-1.15,3.85,3.85,0,0,1,2.74,6.57A3.75,3.75,0,0,1,1091.15,181.36Z"/><path class="cls-6" d="M1119,181.43c-5.18,0-9.3-1.63-12.39-4.9s-4.63-7.61-4.63-13q0-8.82,4.82-13.77t13-5q7.83,0,12.22,4.82t4.39,13.36q0,8.39-4.73,13.42T1119,181.43Zm.41-31.92a10.67,10.67,0,0,0-8.55,3.67q-3.13,3.67-3.14,10.14,0,6.21,3.18,9.81a10.8,10.8,0,0,0,8.51,3.58q5.43,0,8.36-3.52t2.92-10q0-6.57-2.92-10.12T1119.42,149.51Z"/><path class="cls-6" d="M1174.45,180.61h-5.61v-20q0-11.15-8.13-11.14a8.81,8.81,0,0,0-7,3.16,11.75,11.75,0,0,0-2.75,8v20h-5.61v-35H1151v5.81h.14a12.63,12.63,0,0,1,11.48-6.63q5.75,0,8.79,3.71t3,10.71Z"/><path class="cls-6" d="M1190.61,180.61H1185V128.79h5.6Z"/><path class="cls-6" d="M1204.83,136.72a3.56,3.56,0,0,1-2.56-1,3.44,3.44,0,0,1-1.06-2.6,3.6,3.6,0,0,1,3.62-3.66,3.61,3.61,0,0,1,2.62,1.05,3.67,3.67,0,0,1,0,5.18A3.61,3.61,0,0,1,1204.83,136.72Zm2.74,43.89H1202v-35h5.61Z"/><path class="cls-6" d="M1248,180.61h-5.61v-20q0-11.15-8.13-11.14a8.82,8.82,0,0,0-7,3.16,11.75,11.75,0,0,0-2.75,8v20h-5.6v-35h5.6v5.81h.14a12.63,12.63,0,0,1,11.48-6.63q5.74,0,8.79,3.71t3,10.71Z"/><path class="cls-6" d="M1286.66,164.51H1262q.13,5.85,3.14,9a10.83,10.83,0,0,0,8.27,3.17,17.17,17.17,0,0,0,10.87-3.89v5.26q-4.61,3.36-12.2,3.35-7.42,0-11.65-4.77c-2.83-3.17-4.24-7.65-4.24-13.41q0-8.17,4.63-13.31a14.85,14.85,0,0,1,11.5-5.15q6.87,0,10.63,4.44t3.76,12.34Zm-5.74-4.75q0-4.84-2.34-7.55a8,8,0,0,0-6.41-2.7,9.06,9.06,0,0,0-6.74,2.83,12.93,12.93,0,0,0-3.41,7.42Z"/><path class="cls-7" d="M243.56,144a71.79,71.79,0,0,1-12.91,41.19l17.17,17.24A96.48,96.48,0,0,0,267,133.07H242.74A72.85,72.85,0,0,1,243.56,144Zm-3.79-23.13A72.15,72.15,0,1,0,153.94,214v24.59a96.19,96.19,0,1,1,108.82-124.8Zm-68.34,95.26A71.93,71.93,0,0,0,223,194.43l17,17a96.23,96.23,0,0,1-79.47,28.09V215.31A72.85,72.85,0,0,0,171.43,216.13Z"/><path class="cls-8" d="M182.36,93.73H160.5V239.56A96.23,96.23,0,0,0,240,211.47l-17-17a71.92,71.92,0,0,1-40.64,20.88Z"/><rect class="cls-6" x="208.59" y="133.07" width="56.83" height="21.86"/></g></svg>